HIERARCHY
ROOT Hips
{
	OFFSET 0.000000 0.000000 0.000000
	CHANNELS 6 Xposition Yposition Zposition Xrotation Yrotation Zrotation
	JOINT LeftUpLeg_virtual
	{
		OFFSET 0.000000 0.000000 0.000000
		CHANNELS 3 Xrotation Yrotation Zrotation
		JOINT LeftUpLeg
		{
			OFFSET 10.205400 -3.823500 0.155100
			CHANNELS 3 Xrotation Yrotation Zrotation
			JOINT LeftLeg
			{
				OFFSET 0.708757 -12.982077 0.567790
				CHANNELS 3 Xrotation Yrotation Zrotation
				JOINT LeftFoot
				{
					OFFSET -0.708756 -10.717838 -2.184338
					CHANNELS 3 Xrotation Yrotation Zrotation
					JOINT LeftToeBase
					{
						OFFSET 0.108149 -7.191104 7.560241
						CHANNELS 3 Xrotation Yrotation Zrotation
						JOINT LeftToe_End
						{
							OFFSET 0.070230 0.081724 4.490308
							CHANNELS 3 Xrotation Yrotation Zrotation
							End Site
							{
								OFFSET 0 0 0
							}
						}
					}
				}
			}
		}
	}
	JOINT RightUpLeg_virtual
	{
		OFFSET 0.000000 0.000000 0.000000
		CHANNELS 3 Xrotation Yrotation Zrotation
		JOINT RightUpLeg
		{
			OFFSET -10.205400 -3.823500 0.005500
			CHANNELS 3 Xrotation Yrotation Zrotation
			JOINT RightLeg
			{
				OFFSET -0.708756 -12.982134 0.610632
				CHANNELS 3 Xrotation Yrotation Zrotation
				JOINT RightFoot
				{
					OFFSET 0.708754 -10.717769 -1.945823
					CHANNELS 3 Xrotation Yrotation Zrotation
					JOINT RightToeBase
					{
						OFFSET -0.108140 -7.191069 7.372968
						CHANNELS 3 Xrotation Yrotation Zrotation
						JOINT RightToe_End
						{
							OFFSET -0.070227 0.081735 4.479403
							CHANNELS 3 Xrotation Yrotation Zrotation
							End Site
							{
								OFFSET 0 0 0
							}
						}
					}
				}
			}
		}
	}
	JOINT Spine_virtual
	{
		OFFSET 0.000000 0.000000 0.000000
		CHANNELS 3 Xrotation Yrotation Zrotation
		JOINT Spine
		{
			OFFSET 0.000000 6.876099 0.125700
			CHANNELS 3 Xrotation Yrotation Zrotation
			JOINT Spine1
			{
				OFFSET 0.000000 5.730043 0.104720
				CHANNELS 3 Xrotation Yrotation Zrotation
				JOINT Spine1_split
				{
					OFFSET 0.000000 5.730043 0.104720
					CHANNELS 3 Xrotation Yrotation Zrotation
					JOINT Spine2
					{
						OFFSET 0.000000 5.730043 0.104720
						CHANNELS 3 Xrotation Yrotation Zrotation
						JOINT Neck_virtual
						{
							OFFSET 0.000000 0.000000 0.000000
							CHANNELS 3 Xrotation Yrotation Zrotation
							JOINT Neck
							{
								OFFSET 0.000000 10.314075 0.188496
								CHANNELS 3 Xrotation Yrotation Zrotation
								JOINT Head
								{
									OFFSET 0.000000 7.643700 -2.377400
									CHANNELS 3 Xrotation Yrotation Zrotation
									JOINT HeadTop_End
									{
										OFFSET 0.000000 43.788605 -13.619600
										CHANNELS 3 Xrotation Yrotation Zrotation
										End Site
										{
											OFFSET 0 0 0
										}
									}
								}
							}
						}
						JOINT LeftShoulder_virtual
						{
							OFFSET 0.000000 0.000000 0.000000
							CHANNELS 3 Xrotation Yrotation Zrotation
							JOINT LeftShoulder
							{
								OFFSET 2.196100 4.412489 0.087492
								CHANNELS 3 Xrotation Yrotation Zrotation
								JOINT LeftShoulder_split
								{
									OFFSET 2.196100 4.412489 0.087492
									CHANNELS 3 Xrotation Yrotation Zrotation
									JOINT LeftArm
									{
										OFFSET 8.771219 -2.981674 -0.026999
										CHANNELS 3 Xrotation Yrotation Zrotation
										JOINT LeftForeArm
										{
											OFFSET 8.512804 0.000000 -0.000000
											CHANNELS 3 Xrotation Yrotation Zrotation
											JOINT LeftHand
											{
												OFFSET 18.484802 0.000000 -0.000000
												CHANNELS 3 Xrotation Yrotation Zrotation
												End Site
												{
													OFFSET 0 0 0
												}
											}
										}
									}
								}
							}
						}
						JOINT RightShoulder_virtual
						{
							OFFSET 0.000000 0.000000 0.000000
							CHANNELS 3 Xrotation Yrotation Zrotation
							JOINT RightShoulder
							{
								OFFSET -2.196100 4.412496 0.070690
								CHANNELS 3 Xrotation Yrotation Zrotation
								JOINT RightShoulder_split
								{
									OFFSET -2.196100 4.412496 0.070690
									CHANNELS 3 Xrotation Yrotation Zrotation
									JOINT RightArm
									{
										OFFSET -8.771282 -2.981682 -0.094208
										CHANNELS 3 Xrotation Yrotation Zrotation
										JOINT RightForeArm
										{
											OFFSET -8.494598 0.000000 0.000000
											CHANNELS 3 Xrotation Yrotation Zrotation
											JOINT RightHand
											{
												OFFSET -18.483803 0.000000 0.000001
												CHANNELS 3 Xrotation Yrotation Zrotation
												End Site
												{
													OFFSET 0 0 0
												}
											}
										}
									}
								}
							}
						}
					}
				}
			}
		}
	}
}
MOTION
Frames: 5
Frame Time: 0.03333333
2.810057 34.344765 -4.921564 0.000000 0.000000 0.000000 -1.492096 -4.012317 -1.770039 -7.585277 32.579661 11.173538 21.871263 3.310131 3.380802 -14.883954 15.463480 -17.319138 2.675544 -2.960991 0.026619 0.000000 0.000000 0.000000 -0.775097 -2.414865 -1.971581 -7.247597 -10.199067 -9.625122 2.891732 9.712198 4.250699 -2.935242 4.884439 17.869710 7.026305 -0.130224 -22.792942 0.000000 0.000000 0.000000 -2.748414 3.181760 -2.358653 0.184132 1.260421 -1.893140 4.106620 -4.067346 0.392849 0.075860 0.110082 -0.097729 0.000000 0.000000 0.000000 5.658176 -1.686544 0.716676 1.873218 12.321100 8.250581 -18.609692 -7.791269 -7.186416 0.000000 0.000000 0.000000 3.012445 -3.198778 0.127695 0.790242 3.715102 -2.153834 -2.862389 -3.131381 -1.953561 28.154432 -55.879594 -35.154126 10.441096 -24.622630 4.644614 0.000000 0.000000 0.000000 4.289495 -3.310849 0.032648 0.072262 4.524993 -13.377694 -0.975633 -3.156352 4.250072 -34.058042 -8.204427 34.584758 -162.243781 70.134869 159.622942 0.000000 0.000000 0.000000 
2.727123 34.332314 -4.917683 0.000000 0.000000 0.000000 -1.554446 -3.508725 -1.836283 -7.848540 32.401748 11.553805 21.982260 3.454873 3.327060 -14.737762 15.471128 -17.656544 2.758773 -3.063227 0.376238 0.000000 0.000000 0.000000 -0.834038 -1.892533 -2.029071 -6.864379 -10.133042 -9.328434 3.159017 9.718544 4.267324 -3.339855 4.270799 17.707518 6.992774 -0.259088 -22.745157 0.000000 0.000000 0.000000 -2.857742 3.501922 -2.414423 0.214908 1.358013 -1.686009 4.054913 -3.899083 0.445129 0.076546 0.105251 -0.095953 0.000000 0.000000 0.000000 5.572783 -1.531357 0.781105 2.224214 12.323862 8.218172 -18.697383 -8.501042 -7.690674 0.000000 0.000000 0.000000 3.009066 -3.053181 0.217227 0.703600 3.759974 -2.238574 -2.731750 -3.380154 -1.924365 28.726898 -56.237073 -34.853072 9.896782 -24.612932 4.411307 0.000000 0.000000 0.000000 4.199717 -3.166232 0.072619 0.067196 4.573530 -12.669093 -0.623988 -3.199335 4.211020 -31.555696 -6.161027 35.327968 -163.448503 71.525420 160.620122 0.000000 0.000000 0.000000 
2.640148 34.321442 -4.911240 0.000000 0.000000 0.000000 -1.620353 -2.987332 -1.902629 -8.113163 32.214645 11.936543 22.068106 3.620374 3.264628 -14.552425 15.493540 -17.953968 2.855091 -3.158508 0.716109 0.000000 0.000000 0.000000 -0.900652 -1.372273 -2.087824 -6.459383 -10.109558 -9.020024 3.410510 9.730718 4.285567 -3.708842 3.671172 17.562669 6.918705 -0.367286 -22.707705 0.000000 0.000000 0.000000 -2.954363 3.843847 -2.475828 0.245780 1.416258 -1.484842 3.994529 -3.732312 0.489878 0.078718 0.105706 -0.095367 0.000000 0.000000 0.000000 5.467756 -1.382961 0.839288 2.587758 12.341387 8.162443 -18.749709 -9.231552 -8.230184 0.000000 0.000000 0.000000 2.982577 -2.907094 0.295672 0.615168 3.806286 -2.319109 -2.564169 -3.658556 -1.876940 29.347950 -56.613980 -34.483842 9.347529 -24.569662 4.147001 0.000000 0.000000 0.000000 4.097658 -3.023661 0.107416 0.067739 4.614046 -11.855278 -0.267662 -3.216471 4.165343 -28.956666 -3.974882 35.952425 -164.744245 72.922781 161.713799 0.000000 0.000000 0.000000 
2.550259 34.311264 -4.904015 0.000000 0.000000 0.000000 -1.678411 -2.457772 -1.955009 -8.375621 32.012864 12.307741 22.130074 3.784309 3.196473 -14.335244 15.525375 -18.214854 2.982025 -3.242429 1.022497 0.000000 0.000000 0.000000 -0.967052 -0.864192 -2.132452 -6.065867 -10.135863 -8.717800 3.665811 9.749994 4.295293 -4.054987 3.100560 17.418958 6.820939 -0.444216 -22.677627 0.000000 0.000000 0.000000 -3.036693 4.203285 -2.528561 0.276826 1.438373 -1.293972 3.923729 -3.563774 0.522392 0.083625 0.110554 -0.099909 0.000000 0.000000 0.000000 5.332604 -1.236072 0.882199 2.933628 12.359040 8.087572 -18.766418 -9.961909 -8.780814 0.000000 0.000000 0.000000 2.929355 -2.754920 0.359872 0.523870 3.855727 -2.378281 -2.363879 -3.963946 -1.824868 30.081212 -56.997133 -33.990030 8.780451 -24.505493 3.842760 0.000000 0.000000 0.000000 3.982056 -2.879163 0.132453 0.071970 4.644977 -10.941861 0.085776 -3.203070 4.115682 -26.215547 -1.633076 36.402473 -166.179527 74.328509 162.952276 0.000000 0.000000 0.000000 
2.461482 34.300018 -4.897488 0.000000 0.000000 0.000000 -1.720904 -1.931655 -1.979022 -8.634410 31.790801 12.659076 22.163921 3.913935 3.120223 -14.078117 15.552797 -18.473616 3.110949 -3.312017 1.281222 0.000000 0.000000 0.000000 -1.016250 -0.354915 -2.155246 -5.710941 -10.210823 -8.436296 3.951559 9.773662 4.292753 -4.414382 2.565504 17.232052 6.747052 -0.489911 -22.644657 0.000000 0.000000 0.000000 -3.104797 4.577138 -2.554221 0.316933 1.427560 -1.121792 3.839461 -3.391284 0.540482 0.088271 0.122544 -0.102355 0.000000 0.000000 0.000000 5.162031 -1.085323 0.908468 3.227243 12.359225 7.998251 -18.708231 -10.696811 -9.304449 0.000000 0.000000 0.000000 2.851915 -2.593135 0.412894 0.429325 3.924257 -2.401477 -2.198548 -4.239508 -1.804488 30.977268 -57.378001 -33.337665 8.186771 -24.431805 3.498219 0.000000 0.000000 0.000000 3.844203 -2.731136 0.146611 0.077506 4.653109 -9.952101 0.460716 -3.129583 4.060190 -23.303200 0.851477 36.685229 -167.812366 75.772295 164.390591 0.000000 0.000000 0.000000 
